<svg width="64" height="64" viewBox="0 0 64 64" fill="none" xmlns="http://www.w3.org/2000/svg">
<path fill-rule="evenodd" clip-rule="evenodd" d="M32.2222 12C25.4721 12 20 17.4721 20 24.2222C20 28.0811 21.786 31.5214 24.5843 33.7646C25.0578 34.1442 25.3333 34.7182 25.3333 35.3251V40H38.2222V35.9828C38.2222 35.3213 38.5493 34.7027 39.0958 34.3301C42.3287 32.1268 44.4444 28.4213 44.4444 24.2222C44.4444 17.4721 38.9724 12 32.2222 12ZM16 24.2222C16 15.2629 23.2629 8 32.2222 8C41.1815 8 48.4444 15.2629 48.4444 24.2222C48.4444 29.4107 46.0071 34.0295 42.2222 36.9964V42C42.2222 43.1046 41.3268 44 40.2222 44H23.3333C22.2288 44 21.3333 43.1046 21.3333 42V36.247C18.0604 33.2813 16 28.9918 16 24.2222Z" fill="white"/>
<path fill-rule="evenodd" clip-rule="evenodd" d="M32 28C33.1046 28 34 28.8954 34 30V42C34 43.1046 33.1046 44 32 44C30.8954 44 30 43.1046 30 42V30C30 28.8954 30.8954 28 32 28Z" fill="white"/>
<path fill-rule="evenodd" clip-rule="evenodd" d="M32 24C30.8954 24 30 24.8954 30 26C30 27.1046 30.8954 28 32 28C33.1046 28 34 27.1046 34 26C34 24.8954 33.1046 24 32 24ZM26 26C26 22.6863 28.6863 20 32 20C35.3137 20 38 22.6863 38 26C38 29.3137 35.3137 32 32 32C28.6863 32 26 29.3137 26 26Z" fill="white"/>
<path fill-rule="evenodd" clip-rule="evenodd" d="M20 54C20 50.6863 22.6863 48 26 48H38C41.3137 48 44 50.6863 44 54C44 57.3137 41.3137 60 38 60H26C22.6863 60 20 57.3137 20 54ZM26 52C24.8954 52 24 52.8954 24 54C24 55.1046 24.8954 56 26 56H38C39.1046 56 40 55.1046 40 54C40 52.8954 39.1046 52 38 52H26Z" fill="white"/>
<path fill-rule="evenodd" clip-rule="evenodd" d="M18 46C18 42.6863 20.6863 40 24 40H40C43.3137 40 46 42.6863 46 46C46 49.3137 43.3137 52 40 52H24C20.6863 52 18 49.3137 18 46ZM24 44C22.8954 44 22 44.8954 22 46C22 47.1046 22.8954 48 24 48H40C41.1046 48 42 47.1046 42 46C42 44.8954 41.1046 44 40 44H24Z" fill="white"/>
</svg>
