<svg width="64" height="64" viewBox="0 0 64 64" fill="none" xmlns="http://www.w3.org/2000/svg">
<path fill-rule="evenodd" clip-rule="evenodd" d="M22 24C14.268 24 8 30.268 8 38C8 45.732 14.268 52 22 52C29.732 52 36 45.732 36 38C36 37.6407 35.9865 37.2849 35.96 36.9331C35.6809 36.4068 34.9879 36.1977 34.4508 36.5369C29.8861 39.4194 24.5806 34.1139 27.4631 29.5493C27.856 28.927 27.5148 28.1032 26.7969 27.941C24.5746 27.439 23.3115 25.8007 22.956 24.0321C22.6403 24.0108 22.3215 24 22 24ZM4 38C4 28.0589 12.0589 20 22 20C23.1239 20 24.2256 20.1033 25.2953 20.3013C25.8324 20.4008 26.3055 20.7156 26.6046 21.1726C26.9038 21.6296 27.003 22.1891 26.8792 22.7211C26.8102 23.0179 26.857 23.3292 26.9877 23.5628C27.1 23.7635 27.2957 23.9529 27.6783 24.0393C31.0911 24.8102 32.7133 28.7266 30.8452 31.685C30.2389 32.6451 31.3549 33.7611 32.315 33.1548C35.1303 31.377 38.8063 32.7586 39.8259 35.8363C39.8731 35.9789 39.9041 36.1263 39.9183 36.2758C39.9724 36.8438 40 37.4189 40 38C40 47.9411 31.9411 56 22 56C12.0589 56 4 47.9411 4 38Z" fill="white"/>
<path fill-rule="evenodd" clip-rule="evenodd" d="M22 28C23.1046 28 24 28.8954 24 30V37.1716L29.4142 42.5858C30.1953 43.3668 30.1953 44.6332 29.4142 45.4142C28.6332 46.1953 27.3668 46.1953 26.5858 45.4142L20.5858 39.4142C20.2107 39.0391 20 38.5304 20 38V30C20 28.8954 20.8954 28 22 28Z" fill="white"/>
<path fill-rule="evenodd" clip-rule="evenodd" d="M36.059 8.79694C37.2485 3.53107 44.7515 3.53106 45.941 8.79694C46.1032 9.51481 46.927 9.85604 47.5493 9.46309C52.1139 6.58064 57.4194 11.8861 54.5369 16.4508C54.144 17.073 54.4852 17.8968 55.2031 18.059C60.4689 19.2485 60.4689 26.7515 55.2031 27.941C54.4852 28.1032 54.144 28.927 54.5369 29.5493C57.4194 34.1139 52.1139 39.4194 47.5493 36.5369C46.927 36.144 46.1032 36.4852 45.941 37.2031C44.7515 42.4689 37.2485 42.4689 36.059 37.2031C35.8968 36.4852 35.073 36.144 34.4508 36.5369C29.8861 39.4194 24.5806 34.1139 27.4631 29.5493C27.856 28.927 27.5148 28.1032 26.7969 27.941C21.5311 26.7515 21.5311 19.2485 26.7969 18.059C27.5148 17.8968 27.856 17.073 27.4631 16.4508C24.5806 11.8861 29.8861 6.58064 34.4508 9.46309C35.073 9.85604 35.8968 9.51481 36.059 8.79694ZM42.0393 9.67827C41.7891 8.57062 40.2109 8.57062 39.9607 9.67828C39.1898 13.0911 35.2734 14.7133 32.315 12.8452C31.3549 12.2389 30.2389 13.3549 30.8452 14.315C32.7133 17.2734 31.0911 21.1898 27.6783 21.9607C26.5706 22.2109 26.5706 23.7891 27.6783 24.0393C31.0911 24.8102 32.7133 28.7266 30.8452 31.685C30.2389 32.6451 31.3549 33.7611 32.315 33.1548C35.2734 31.2867 39.1898 32.9089 39.9607 36.3217C40.2109 37.4294 41.7891 37.4294 42.0393 36.3217C42.8102 32.9089 46.7266 31.2867 49.685 33.1548C50.6451 33.7611 51.7611 32.6451 51.1548 31.685C49.2867 28.7266 50.9089 24.8102 54.3217 24.0393C55.4294 23.7891 55.4294 22.2109 54.3217 21.9607C50.9089 21.1898 49.2867 17.2734 51.1548 14.315C51.7611 13.3549 50.6451 12.2389 49.685 12.8452C46.7266 14.7133 42.8102 13.0911 42.0393 9.67827Z" fill="white"/>
<path fill-rule="evenodd" clip-rule="evenodd" d="M48.029 16.2851C48.9761 16.8534 49.2833 18.0819 48.715 19.029L42.715 29.029C42.4336 29.498 41.9724 29.8313 41.4388 29.9513C40.9052 30.0713 40.3457 29.9675 39.8906 29.6642L33.8906 25.6642C32.9715 25.0515 32.7232 23.8097 33.3359 22.8907C33.9486 21.9716 35.1903 21.7233 36.1094 22.336L40.3642 25.1725L45.285 16.9711C45.8533 16.0239 47.0818 15.7168 48.029 16.2851Z" fill="white"/>
</svg>
