<svg width="64" height="64" viewBox="0 0 64 64" fill="none" xmlns="http://www.w3.org/2000/svg">
<path fill-rule="evenodd" clip-rule="evenodd" d="M32 10C28.6863 10 26 12.6863 26 16C26 19.3137 28.6863 22 32 22C35.3137 22 38 19.3137 38 16C38 12.6863 35.3137 10 32 10ZM22 16C22 10.4772 26.4772 6 32 6C37.5228 6 42 10.4772 42 16C42 21.5228 37.5228 26 32 26C26.4772 26 22 21.5228 22 16Z" fill="white"/>
<path fill-rule="evenodd" clip-rule="evenodd" d="M29.2333 34.2147L32 36.4354L34.7667 34.2147C33.9084 34.0757 32.9879 34 32 34C31.0121 34 30.0916 34.0757 29.2333 34.2147ZM39.2604 35.737L34.5839 39.4906L37.7365 45.0077C38.1839 45.7908 38.0519 46.7765 37.4142 47.4142L33.4142 51.4142C32.6332 52.1953 31.3668 52.1953 30.5858 51.4142L26.5858 47.4142C25.948 46.7765 25.816 45.7908 26.2635 45.0077L29.4161 39.4906L24.7396 35.737C21.2173 37.6739 19.0494 40.9655 17.7315 44.0556C17.0157 45.734 16.5758 47.2971 16.3159 48.4396C16.1863 49.009 16.1026 49.4687 16.0521 49.7797C16.0268 49.935 16.0099 50.0528 15.9997 50.1281C15.9946 50.1657 15.9912 50.1927 15.9893 50.2083L15.9878 50.2209C15.8652 51.318 14.8765 52.1097 13.7791 51.9878C12.6813 51.8658 11.8902 50.877 12.0122 49.7791L14 50C12.0122 49.7791 12.0121 49.7799 12.0122 49.7791L12.0126 49.7757L12.0131 49.7712L12.0146 49.7587L12.0192 49.7202C12.0231 49.6887 12.0286 49.6455 12.0359 49.5912C12.0506 49.4828 12.0727 49.3299 12.1039 49.1378C12.1663 48.7539 12.2655 48.2117 12.4155 47.5523C12.7147 46.2372 13.2208 44.4358 14.0522 42.4863C15.7011 38.6201 18.7328 33.9428 24.1977 31.5495C26.4318 30.571 29.0202 30 32 30C34.9798 30 37.5682 30.571 39.8023 31.5495C45.2672 33.9428 48.2989 38.6201 49.9478 42.4863C50.7792 44.4358 51.2853 46.2372 51.5845 47.5523C51.7345 48.2117 51.8337 48.7539 51.8961 49.1378C51.9273 49.3299 51.9494 49.4828 51.9641 49.5912C51.9714 49.6455 51.9769 49.6887 51.9808 49.7202L51.9854 49.7587L51.9869 49.7712L51.9874 49.7757C51.9875 49.7765 51.9878 49.7791 50 50L51.9878 49.7791C52.1097 50.877 51.3187 51.8658 50.2209 51.9878C49.1241 52.1096 48.1361 51.3202 48.0126 50.224L48.0122 50.2209L48.0107 50.2083C48.0088 50.1927 48.0054 50.1657 48.0003 50.1281C47.9901 50.0528 47.9731 49.935 47.9479 49.7797C47.8973 49.4687 47.8137 49.009 47.6841 48.4396C47.4242 47.2971 46.9843 45.734 46.2685 44.0556C44.9506 40.9655 42.7827 37.6739 39.2604 35.737ZM32 43.0311L30.4944 45.666L32 47.1716L33.5056 45.666L32 43.0311Z" fill="white"/>
</svg>
