<svg width="64" height="64" viewBox="0 0 64 64" fill="none" xmlns="http://www.w3.org/2000/svg">
<path fill-rule="evenodd" clip-rule="evenodd" d="M19.7775 13.7077C23.3953 11.2903 27.6488 10 32 10C33.1046 10 34 10.8954 34 12V30H52C53.1046 30 54 30.8954 54 32C54 36.3512 52.7097 40.6047 50.2923 44.2225C47.8749 47.8404 44.439 50.6602 40.419 52.3253C36.3991 53.9905 31.9756 54.4261 27.708 53.5773C23.4404 52.7284 19.5204 50.6331 16.4437 47.5563C13.3669 44.4796 11.2716 40.5596 10.4227 36.292C9.57386 32.0244 10.0095 27.6009 11.6747 23.581C13.3398 19.561 16.1596 16.1251 19.7775 13.7077ZM30 14.1114C27.1475 14.4304 24.4023 15.4282 21.9997 17.0335C19.0397 19.0114 16.7326 21.8226 15.3702 25.1117C14.0078 28.4008 13.6513 32.02 14.3459 35.5116C15.0404 39.0033 16.7547 42.2106 19.2721 44.7279C21.7894 47.2453 24.9967 48.9596 28.4884 49.6541C31.98 50.3487 35.5992 49.9922 38.8883 48.6298C42.1774 47.2675 44.9886 44.9604 46.9665 42.0003C48.5718 39.5977 49.5697 36.8525 49.8886 34H32C31.4696 34 30.9609 33.7893 30.5858 33.4142C30.2107 33.0391 30 32.5304 30 32V14.1114Z" fill="white"/>
<path fill-rule="evenodd" clip-rule="evenodd" d="M36.5858 4.58579C36.9609 4.21071 37.4696 4 38 4C40.8891 4 43.7499 4.56905 46.419 5.67465C49.0882 6.78025 51.5135 8.40076 53.5564 10.4436C55.5992 12.4865 57.2197 14.9118 58.3254 17.581C59.431 20.2501 60 23.1109 60 26C60 27.1046 59.1046 28 58 28H38C36.8954 28 36 27.1046 36 26L36 6C36 5.46957 36.2107 4.96086 36.5858 4.58579ZM40 8.11145L40 24H55.8885C55.701 22.3228 55.2782 20.677 54.6298 19.1117C53.7253 16.9278 52.3994 14.9435 50.7279 13.2721C49.0565 11.6006 47.0722 10.2748 44.8883 9.37017C43.323 8.7218 41.6772 8.29897 40 8.11145Z" fill="white"/>
</svg>
