<svg width="64" height="64" viewBox="0 0 64 64" fill="none" xmlns="http://www.w3.org/2000/svg">
<path fill-rule="evenodd" clip-rule="evenodd" d="M12.0631 40.7287C13.0207 40.1782 14.2433 40.5083 14.7938 41.4659C16.5614 44.5408 19.079 47.1179 22.1118 48.9568C25.1445 50.7958 28.5937 51.8366 32.1374 51.9823C33.241 52.0277 34.0989 52.9591 34.0536 54.0628C34.0082 55.1664 33.0767 56.0243 31.9731 55.9789C27.7544 55.8055 23.6483 54.5664 20.0378 52.3772C16.4274 50.1879 13.4302 47.1199 11.3259 43.4594C10.7754 42.5017 11.1055 41.2792 12.0631 40.7287Z" fill="white"/>
<path fill-rule="evenodd" clip-rule="evenodd" d="M53.9369 21.2713C52.9793 21.8218 51.7567 21.4917 51.2062 20.5341C49.4386 17.4592 46.921 14.8821 43.8883 13.0432C40.8555 11.2042 37.4064 10.1634 33.8626 10.0177C32.759 9.97232 31.9011 9.04087 31.9464 7.93723C31.9918 6.83359 32.9233 5.9757 34.0269 6.02107C38.2457 6.1945 42.3518 7.43362 45.9622 9.62283C49.5726 11.8121 52.5698 14.88 54.6741 18.5406C55.2246 19.4983 54.8945 20.7208 53.9369 21.2713Z" fill="white"/>
<path fill-rule="evenodd" clip-rule="evenodd" d="M16 8C13.7909 8 12 9.79086 12 12C12 14.2091 13.7909 16 16 16C18.2091 16 20 14.2091 20 12C20 9.79086 18.2091 8 16 8ZM8 12C8 7.58172 11.5817 4 16 4C20.4183 4 24 7.58172 24 12C24 16.4183 20.4183 20 16 20C11.5817 20 8 16.4183 8 12Z" fill="white"/>
<path fill-rule="evenodd" clip-rule="evenodd" d="M48 30C45.7909 30 44 31.7909 44 34C44 36.2091 45.7909 38 48 38C50.2091 38 52 36.2091 52 34C52 31.7909 50.2091 30 48 30ZM40 34C40 29.5817 43.5817 26 48 26C52.4183 26 56 29.5817 56 34C56 38.4183 52.4183 42 48 42C43.5817 42 40 38.4183 40 34Z" fill="white"/>
<path fill-rule="evenodd" clip-rule="evenodd" d="M16 26C11.5817 26 8 29.5817 8 34V36C8 37.1046 7.10457 38 6 38C4.89543 38 4 37.1046 4 36V34C4 27.3726 9.37258 22 16 22C22.6274 22 28 27.3726 28 34V36C28 37.1046 27.1046 38 26 38C24.8954 38 24 37.1046 24 36V34C24 29.5817 20.4183 26 16 26Z" fill="white"/>
<path fill-rule="evenodd" clip-rule="evenodd" d="M48 48C43.5817 48 40 51.5817 40 56V58C40 59.1046 39.1046 60 38 60C36.8954 60 36 59.1046 36 58V56C36 49.3726 41.3726 44 48 44C54.6274 44 60 49.3726 60 56V58C60 59.1046 59.1046 60 58 60C56.8954 60 56 59.1046 56 58V56C56 51.5817 52.4183 48 48 48Z" fill="white"/>
</svg>
