<svg width="25" height="26" viewBox="0 0 25 26" fill="none" xmlns="http://www.w3.org/2000/svg">
<path d="M0.547045 25.5H0.504642C0.363413 25.4851 0.233354 25.4222 0.140013 25.3236C0.0466718 25.225 -0.00321161 25.098 0.000160447 24.9673V9.4698C0.0206362 9.36244 0.0677906 9.26086 0.137939 9.17298C0.208088 9.0851 0.29935 9.01328 0.404621 8.96311L4.58394 6.00092V2.81387C4.58098 2.67772 4.63628 2.54593 4.73794 2.44688C4.83961 2.34782 4.97951 2.2894 5.12755 2.28419H9.83093L12.2228 0.580235C12.3129 0.527823 12.4174 0.5 12.524 0.5C12.6306 0.5 12.7351 0.527823 12.8252 0.580235L15.2171 2.28419H19.9205C20.0687 2.28889 20.2089 2.34715 20.3107 2.44632C20.4125 2.54549 20.4676 2.67757 20.4641 2.81387V6.04089L24.5956 8.96211C24.7956 9.11002 25 9.3089 25 9.4678V24.8584C25 25.2262 24.7999 25.492 24.4488 25.497L0.547045 25.5ZM2.02568 24.4826H23.0365L14.0646 17.4809L12.8328 18.3604C12.7907 18.401 12.7401 18.4334 12.6841 18.4555C12.628 18.4776 12.5676 18.489 12.5066 18.489C12.4456 18.489 12.3852 18.4776 12.3291 18.4555C12.2731 18.4334 12.2225 18.401 12.1804 18.3604L10.9486 17.4809L2.02568 24.4826ZM1.04718 23.9459L10.0712 16.8593L1.04718 10.4242V23.9459ZM14.9474 16.8593L23.9715 23.906V10.4202L14.9474 16.8593ZM5.62877 12.462L12.5088 17.351L19.3888 12.462V3.34255H5.62877V12.462ZM1.42445 9.4758L4.59046 11.7244V7.22717L1.42445 9.4758ZM20.4793 11.6844L23.567 9.48579L20.4793 7.27114V11.6844ZM11.5444 2.27919H13.4688L12.5088 1.58861L11.5444 2.27919ZM8.85351 13.4574V12.448H16.226V13.4574H8.85351ZM8.85351 10.2093V9.19997H16.226V10.2093H8.85351ZM8.85351 6.96133V5.95195H16.226V6.96133H8.85351Z" fill="white"/>
</svg>
