<svg width="60" height="60" viewBox="0 0 60 60" fill="none" xmlns="http://www.w3.org/2000/svg">
<path fill-rule="evenodd" clip-rule="evenodd" d="M41.25 26.25C41.25 25.2145 42.0895 24.375 43.125 24.375H52.5C53.5355 24.375 54.375 25.2145 54.375 26.25V54.375C54.375 55.4105 53.5355 56.25 52.5 56.25H43.125C42.0895 56.25 41.25 55.4105 41.25 54.375V26.25ZM45 28.125V52.5H50.625V28.125H45ZM22.5 33.75C22.5 32.7145 23.3395 31.875 24.375 31.875H33.75C34.7855 31.875 35.625 32.7145 35.625 33.75V54.375C35.625 55.4105 34.7855 56.25 33.75 56.25H24.375C23.3395 56.25 22.5 55.4105 22.5 54.375V33.75ZM26.25 35.625V52.5H31.875V35.625H26.25ZM3.75 41.25C3.75 40.2145 4.58947 39.375 5.625 39.375H15C16.0355 39.375 16.875 40.2145 16.875 41.25V54.375C16.875 55.4105 16.0355 56.25 15 56.25H5.625C4.58947 56.25 3.75 55.4105 3.75 54.375V41.25ZM7.5 43.125V52.5H13.125V43.125H7.5Z" fill="white"/>
<path fill-rule="evenodd" clip-rule="evenodd" d="M45 5.625C45 4.58947 45.8395 3.75 46.875 3.75H54.375C55.4105 3.75 56.25 4.58947 56.25 5.625V13.125C56.25 14.1605 55.4105 15 54.375 15C53.3395 15 52.5 14.1605 52.5 13.125V9.80033L38.7457 22.0264C38.1238 22.5792 37.2119 22.656 36.5063 22.215L22.444 13.4261L6.53559 22.264C5.63037 22.7669 4.48886 22.4408 3.98596 21.5356C3.48306 20.6304 3.80921 19.4889 4.71443 18.986L21.5894 9.61096C22.1858 9.27961 22.9152 9.29839 23.4938 9.66L37.3034 18.2911L49.4434 7.5H46.875C45.8395 7.5 45 6.66053 45 5.625Z" fill="white"/>
</svg>
