<svg width="25" height="26" viewBox="0 0 25 26" fill="none" xmlns="http://www.w3.org/2000/svg">
<path d="M16.686 25.4843C15.1591 25.3347 13.6712 24.896 12.2954 24.1898C9.30193 22.7493 6.63467 20.6652 4.46877 18.0745C2.84438 16.2075 1.55079 14.0549 0.648184 11.7169C0.166397 10.5554 -0.0518586 9.29368 0.0103812 8.02992C0.0808245 7.15501 0.462133 6.339 1.07964 5.74169L2.79192 4.0323C2.79604 4.02988 2.7996 4.02654 2.80235 4.02253C3.25016 3.57054 3.84647 3.31344 4.46982 3.30358C5.08734 3.31033 5.67786 3.56833 6.11537 4.02253C6.44157 4.32227 6.7532 4.64372 7.05334 4.94889C7.20445 5.10528 7.36599 5.26602 7.52023 5.41914L8.88546 6.78317C9.12837 6.98575 9.32445 7.24266 9.4592 7.53489C9.59396 7.82711 9.6639 8.14718 9.6639 8.47139C9.6639 8.7956 9.59396 9.11565 9.4592 9.40788C9.32445 9.70011 9.12837 9.95702 8.88546 10.1596C8.74581 10.2997 8.60512 10.4441 8.4686 10.5842C8.08925 10.973 7.70051 11.3651 7.28052 11.7495C7.64311 12.5335 8.10395 13.2639 8.65096 13.9215C9.82184 15.4017 11.2173 16.6721 12.7821 17.6824C12.9437 17.7815 13.1104 17.8714 13.2813 17.9517C13.4209 18.0191 13.5606 18.0908 13.6981 18.1689L15.3052 16.5627C15.7486 16.0939 16.3504 15.8246 16.982 15.8123C17.2927 15.8169 17.5993 15.8866 17.8836 16.0172C18.1679 16.1478 18.4241 16.3366 18.637 16.5725L21.382 19.3321C21.6181 19.5378 21.8082 19.7949 21.9389 20.0852C22.0697 20.3755 22.138 20.6921 22.139 21.0129C22.14 21.3336 22.0737 21.6507 21.9447 21.9419C21.8157 22.2331 21.6272 22.4914 21.3924 22.6987C21.184 22.9279 20.9558 23.1396 20.7442 23.3503C20.4352 23.6344 20.1422 23.9368 19.8667 24.2561L19.8459 24.2767C19.4794 24.6768 19.0365 24.9922 18.5457 25.2027C18.0548 25.4131 17.5271 25.5139 16.9966 25.4985C16.8986 25.4941 16.7902 25.4887 16.686 25.4843ZM3.67465 4.90655L1.96548 6.60942C1.55298 7.00463 1.29909 7.54773 1.25472 8.12983C1.20353 9.21138 1.39739 10.2903 1.82062 11.2793C2.67649 13.4865 3.90124 15.518 5.43797 17.2795C7.49113 19.7302 10.0166 21.7029 12.8498 23.069C14.0804 23.7058 15.4116 24.1047 16.7788 24.2463C16.857 24.2463 16.9341 24.2463 17.0122 24.2463C17.3694 24.2615 17.7255 24.1968 18.0567 24.0565C18.3878 23.9162 18.6863 23.7035 18.9319 23.4329C19.2344 23.0835 19.5552 22.7517 19.8928 22.4392C20.1012 22.2306 20.3096 22.0352 20.5056 21.8288C20.6266 21.7332 20.7249 21.6097 20.7927 21.468C20.8605 21.3263 20.8961 21.1702 20.8966 21.0118C20.8971 20.8535 20.8626 20.6972 20.7956 20.555C20.7287 20.4129 20.6312 20.2887 20.5108 20.1922L17.7491 17.4381L17.7386 17.4261C17.5404 17.2022 17.2665 17.0672 16.9747 17.0493C16.6723 17.0673 16.3882 17.2062 16.1816 17.437L14.4714 19.1474C14.2799 19.3541 14.0176 19.4732 13.7419 19.4787C13.5776 19.4753 13.416 19.4342 13.2688 19.3581C13.2479 19.3484 13.2271 19.3364 13.2115 19.3277C13.0502 19.2283 12.8839 19.138 12.7133 19.0573C12.5027 18.9601 12.2981 18.8495 12.1005 18.7261C10.4228 17.6434 8.92571 16.2829 7.66821 14.698C7.01304 13.91 6.47136 13.0269 6.06016 12.0764C6.05495 12.0623 6.04868 12.0514 6.04451 12.0362C5.96691 11.8535 5.94874 11.6494 5.99276 11.4549C6.03679 11.2604 6.1406 11.0862 6.28838 10.9589C6.29564 10.9488 6.30443 10.94 6.31443 10.9328C6.7511 10.5451 7.14815 10.14 7.57544 9.71107C7.7203 9.57097 7.86203 9.42544 8.0069 9.27666C8.13392 9.18713 8.23795 9.06651 8.30986 8.92537C8.38177 8.78422 8.41936 8.62685 8.41936 8.46704C8.41936 8.30723 8.38177 8.14987 8.30986 8.00872C8.23795 7.86757 8.13392 7.74695 8.0069 7.65742L6.64166 6.29339C6.48117 6.13266 6.31963 5.96758 6.16435 5.81228C5.85899 5.49516 5.56826 5.20085 5.26082 4.91631L5.24622 4.9022C5.04556 4.68128 4.76984 4.55106 4.47815 4.53947C4.17516 4.55041 3.88767 4.68175 3.67465 4.90655ZM15.3792 11.8657C15.3034 11.4216 15.0922 11.0148 14.7768 10.7059C14.4561 10.388 14.0507 10.1786 13.6137 10.1053C13.5346 10.0945 13.4583 10.0671 13.3895 10.0249C13.3207 9.98269 13.2607 9.92645 13.2133 9.85954C13.1658 9.79263 13.1317 9.71643 13.1132 9.6355C13.0946 9.55457 13.0919 9.47058 13.1052 9.38853C13.1374 9.22323 13.2306 9.07768 13.3646 8.98308C13.4986 8.88848 13.6629 8.85236 13.8222 8.88244C14.5111 8.99781 15.1501 9.32886 15.6543 9.83162C16.15 10.3193 16.483 10.9593 16.6047 11.6583C16.617 11.7402 16.6135 11.8237 16.5945 11.9042C16.5755 11.9846 16.5414 12.0604 16.4941 12.1269C16.4467 12.1935 16.3872 12.2496 16.3189 12.2921C16.2506 12.3345 16.1749 12.3623 16.0962 12.374C16.0617 12.3793 16.0268 12.3822 15.992 12.3827C15.8476 12.3855 15.707 12.3352 15.5948 12.2406C15.4825 12.1461 15.4058 12.0133 15.3781 11.8657H15.3792ZM19.6343 11.6485C19.577 11.5914 19.5314 11.5228 19.5002 11.4469C19.469 11.3709 19.453 11.2891 19.453 11.2065C19.453 11.1239 19.469 11.0421 19.5002 10.9662C19.5314 10.8902 19.577 10.8216 19.6343 10.7645C19.7545 10.6488 19.9121 10.5845 20.0757 10.5845C20.2393 10.5845 20.3969 10.6488 20.517 10.7645C20.5746 10.8214 20.6205 10.89 20.6518 10.966C20.6831 11.042 20.6993 11.1238 20.6993 11.2065C20.6993 11.2892 20.6831 11.3711 20.6518 11.4471C20.6205 11.523 20.5746 11.5916 20.517 11.6485C20.3969 11.7642 20.2393 11.8285 20.0757 11.8285C19.9121 11.8285 19.7545 11.7642 19.6343 11.6485ZM23.7665 11.1055C23.3577 8.74355 22.2335 6.58019 20.5587 4.9326C18.8568 3.23541 16.6987 2.11931 14.3724 1.73321C14.2936 1.72168 14.2179 1.69392 14.1495 1.65155C14.0811 1.60919 14.0215 1.55306 13.9742 1.48644C13.9269 1.41983 13.8927 1.34405 13.8738 1.26354C13.8548 1.18304 13.8514 1.09941 13.8638 1.01753C13.8971 0.852646 13.9904 0.707605 14.1241 0.612841C14.2577 0.518077 14.4215 0.480953 14.5809 0.509271C17.1591 0.93891 19.5506 2.17646 21.4373 4.05728C23.2936 5.88323 24.5395 8.28116 24.9921 10.8992C25.005 10.9811 25.0021 11.0648 24.9834 11.1455C24.9647 11.2262 24.9305 11.3021 24.8831 11.3688C24.8356 11.4354 24.7758 11.4915 24.7072 11.5336C24.6385 11.5757 24.5624 11.6029 24.4835 11.6138C24.4489 11.6193 24.4142 11.6229 24.3793 11.6246C24.2347 11.6264 24.0941 11.5754 23.982 11.4803C23.8698 11.3853 23.7932 11.2523 23.7654 11.1044L23.7665 11.1055ZM18.8308 9.43305C18.7931 9.3603 18.7699 9.28028 18.7629 9.1979C18.7558 9.11551 18.7649 9.0325 18.7897 8.95392C18.8145 8.87534 18.8544 8.80286 18.907 8.7409C18.9596 8.67894 19.0237 8.6288 19.0955 8.59356C19.2416 8.51591 19.4108 8.50048 19.5676 8.55054C19.7243 8.6006 19.8563 8.71222 19.9355 8.86181C19.9736 8.93449 19.9969 9.01453 20.0041 9.097C20.0114 9.17946 20.0023 9.26258 19.9775 9.34125C19.9527 9.41991 19.9127 9.49244 19.8599 9.55437C19.8072 9.61629 19.7428 9.6663 19.6708 9.7013C19.5821 9.74708 19.4841 9.76981 19.3852 9.76754C19.2717 9.76874 19.1601 9.73773 19.0622 9.67785C18.9644 9.61797 18.884 9.53147 18.8298 9.42762L18.8308 9.43305ZM17.6532 7.83444C17.5954 7.77787 17.5493 7.70956 17.5178 7.63373C17.4863 7.55789 17.4701 7.47615 17.4701 7.39352C17.4701 7.31089 17.4863 7.22914 17.5178 7.1533C17.5493 7.07747 17.5954 7.00916 17.6532 6.95259C17.7726 6.83577 17.9302 6.77074 18.094 6.77074C18.2578 6.77074 18.4154 6.83577 18.5348 6.95259C18.5926 7.00916 18.6387 7.07747 18.6702 7.1533C18.7017 7.22914 18.7179 7.31089 18.7179 7.39352C18.7179 7.47615 18.7017 7.55789 18.6702 7.63373C18.6387 7.70956 18.5926 7.77787 18.5348 7.83444C18.4149 7.95007 18.2574 8.0143 18.094 8.0143C17.9306 8.0143 17.7731 7.95007 17.6532 7.83444ZM16.0545 6.65829C15.9827 6.62305 15.9185 6.57291 15.866 6.51095C15.8134 6.44899 15.7735 6.3765 15.7487 6.29793C15.7239 6.21935 15.7148 6.13633 15.7218 6.05395C15.7289 5.97157 15.752 5.89155 15.7898 5.81879C15.8701 5.67035 16.0024 5.56007 16.159 5.51107C16.3156 5.46208 16.4843 5.47817 16.6298 5.55598C16.7012 5.59138 16.765 5.64148 16.8173 5.70327C16.8696 5.76505 16.9094 5.83724 16.9343 5.91549C16.9591 5.99373 16.9685 6.0764 16.9618 6.15852C16.9551 6.24064 16.9326 6.3205 16.8955 6.39329C16.8396 6.4954 16.7587 6.5803 16.6612 6.63941C16.5637 6.69853 16.4529 6.72977 16.34 6.72996C16.2398 6.73158 16.1408 6.70654 16.0524 6.6572L16.0545 6.65829ZM13.8378 5.86006C13.7806 5.80345 13.7351 5.73531 13.704 5.65979C13.6729 5.58427 13.6569 5.50295 13.6569 5.42077C13.6569 5.33859 13.6729 5.25726 13.704 5.18174C13.7351 5.10623 13.7806 5.03809 13.8378 4.98148C13.9574 4.86458 14.1152 4.79952 14.2792 4.79952C14.4431 4.79952 14.6009 4.86458 14.7205 4.98148C14.778 5.03793 14.8237 5.106 14.855 5.18155C14.8863 5.25709 14.9024 5.3385 14.9024 5.42077C14.9024 5.50304 14.8863 5.58445 14.855 5.65999C14.8237 5.73553 14.778 5.80362 14.7205 5.86006C14.6006 5.97625 14.4429 6.04082 14.2792 6.04082C14.1154 6.04082 13.9577 5.97625 13.8378 5.86006Z" fill="white"/>
</svg>
