<svg width="25" height="30" viewBox="0 0 25 30" fill="none" xmlns="http://www.w3.org/2000/svg">
<path d="M11.9249 29.1394L0.251531 15.1169C0.172448 15.03 0.10914 14.9233 0.0658001 14.804C0.02246 14.6847 0 14.5555 0 14.4247C0 14.294 0.02246 14.1648 0.0658001 14.0455C0.10914 13.9262 0.172448 13.8196 0.251531 13.7327L1.50308 12.2287C1.57781 12.1334 1.66736 12.0577 1.76628 12.0059C1.8652 11.9542 1.97152 11.9275 2.07894 11.9275C2.18637 11.9275 2.29269 11.9542 2.3916 12.0059C2.49052 12.0577 2.57998 12.1334 2.65472 12.2287L12.5 24.0553L22.3453 12.2287C22.4202 12.1336 22.5099 12.058 22.6089 12.0063C22.708 11.9547 22.8144 11.9281 22.9219 11.9281C23.0294 11.9281 23.1357 11.9547 23.2347 12.0063C23.3337 12.058 23.4234 12.1336 23.4984 12.2287L24.75 13.7327C24.8287 13.8199 24.8916 13.9267 24.9346 14.0459C24.9777 14.1652 25 14.2942 25 14.4247C25 14.5553 24.9777 14.6844 24.9346 14.8037C24.8916 14.9229 24.8287 15.0297 24.75 15.1169L13.0751 29.1394C13.0003 29.2345 12.9107 29.3101 12.8118 29.3617C12.7129 29.4133 12.6066 29.4399 12.4992 29.4399C12.3919 29.4399 12.2857 29.4133 12.1868 29.3617C12.0879 29.3101 11.9983 29.2345 11.9235 29.1394H11.9249ZM11.9249 17.5853L0.251531 3.5627C0.172448 3.47579 0.10914 3.36923 0.0658001 3.24995C0.02246 3.13067 0 3.00142 0 2.87068C0 2.73995 0.02246 2.61069 0.0658001 2.49142C0.10914 2.37214 0.172448 2.26546 0.251531 2.17856L1.50308 0.674571C1.57781 0.579266 1.66736 0.503485 1.76628 0.451733C1.8652 0.399981 1.97152 0.373352 2.07894 0.373352C2.18637 0.373352 2.29269 0.399981 2.3916 0.451733C2.49052 0.503485 2.57998 0.579266 2.65472 0.674571L12.5 12.5012L22.3453 0.674571C22.4202 0.579439 22.5099 0.503918 22.6089 0.452287C22.708 0.400657 22.8144 0.374017 22.9219 0.374017C23.0294 0.374017 23.1357 0.400657 23.2347 0.452287C23.3337 0.503918 23.4234 0.579439 23.4984 0.674571L24.75 2.17856C24.8286 2.26584 24.8915 2.37264 24.9346 2.49186C24.9776 2.61108 24.9999 2.74013 25 2.87068C24.9997 3.00145 24.9772 3.13059 24.9342 3.25006C24.8911 3.36953 24.8284 3.47662 24.75 3.56447L13.0751 17.5872C13.0003 17.6822 12.9107 17.7578 12.8118 17.8094C12.7129 17.861 12.6066 17.8876 12.4992 17.8876C12.3919 17.8876 12.2857 17.861 12.1868 17.8094C12.0879 17.7578 11.9983 17.6822 11.9235 17.5872L11.9249 17.5853Z" fill="white"/>
</svg>
