<svg width="25" height="25" viewBox="0 0 25 25" fill="none" xmlns="http://www.w3.org/2000/svg">
<path d="M22.4302 7.06025C22.446 7.28232 22.446 7.50444 22.446 7.72651C22.446 14.5 17.2906 22.3045 7.86802 22.3045C4.96509 22.3045 2.26841 21.4638 0 20.0044C0.412451 20.052 0.808984 20.0679 1.2373 20.0679C3.63257 20.0679 5.83755 19.2589 7.59834 17.8788C5.3458 17.8312 3.45811 16.356 2.80771 14.3255C3.125 14.373 3.44224 14.4048 3.77539 14.4048C4.2354 14.4048 4.69546 14.3413 5.12373 14.2303C2.77603 13.7544 1.01519 11.6922 1.01519 9.20176V9.13833C1.69727 9.51904 2.49048 9.75698 3.33115 9.78867C1.95107 8.8686 1.04692 7.29819 1.04692 5.52153C1.04692 4.56978 1.30068 3.69731 1.74487 2.93589C4.26709 6.04502 8.05835 8.07544 12.3096 8.29756C12.2303 7.91685 12.1827 7.52031 12.1827 7.12373C12.1827 4.3001 14.4669 2 17.3064 2C18.7816 2 20.1141 2.61865 21.05 3.61802C22.208 3.39595 23.3184 2.96763 24.302 2.38071C23.9212 3.57046 23.1122 4.56982 22.0494 5.2043C23.0805 5.09331 24.0799 4.80771 24.9999 4.41118C24.302 5.42637 23.4295 6.33052 22.4302 7.06025Z" fill="black"/>
</svg>
